<?xml version="1.0" standalone="no"?><!DOCTYPE svg PUBLIC "-//W3C//DTD SVG 1.1//EN" "http://www.w3.org/Graphics/SVG/1.1/DTD/svg11.dtd"><svg t="1719412892916" class="icon" viewBox="0 0 1448 1024" version="1.1" xmlns="http://www.w3.org/2000/svg" p-id="26851" width="282.8125" height="200" xmlns:xlink="http://www.w3.org/1999/xlink"><path d="M 1095.11 457.184 c -17.9451 101.585 -96.412 121.253 -130.477 124.955 c -24.1998 30.9326 -59.2092 47.8525 -99.455 47.8525 c -9.67956 0 -18.7467 0.541863 -26.8919 -0.892783 C 814.401 655.243 778.753 670.878 741.359 670.878 H 739.686 v 209.568 c 0 10.5087 -0.285553 51.6731 -3.21161 61.0172 c -12.6761 40.5657 -57.9552 68.6394 -105.923 68.6394 c -47.2625 0 -79.37 -29.0387 -92.6138 -68.6394 c -3.30622 -9.85674 -2.9553 -57.4718 -2.9553 -68.6428 V 548.415 l -2.2741 3.49028 c -19.5329 30.1912 -50.8972 47.493 -86.2559 47.493 c -38.1058 0.013762 -74.8063 -20.4342 -93.5633 -52.0601 c -17.9176 -30.2187 -17.0007 -65.4123 2.45128 -96.7715 l 226 -409.757 C 590.357 24.4096 608.068 15.4818 627.544 15.4818 h 318.202 c 27.4802 0 50.333 19.1579 52.0085 45.224 l 7.38826 113.812 c 78.9417 115.425 105.027 197.321 89.9681 282.667 Z" fill="#e16531" p-id="26852"></path><path d="M 1053.44 451.526 c -13.6704 77.3573 -71.0597 89.7187 -98.0376 91.1637 c -8.47714 0.461013 -16.3625 4.55165 -21.0363 11.3155 c -19.5243 28.33 -45.7022 35.8317 -67.941 35.8317 c -15.9824 0 -29.9125 -3.86701 -37.8874 -6.65889 a 9.33208 9.33208 0 0 0 -3.04647 -0.51778 c -3.16517 0 -6.16175 1.61527 -7.83895 4.35038 c -19.8528 32.3346 -48.0641 40.6758 -71.882 40.6758 c -13.8562 0 -26.252 -2.82629 -34.6138 -5.3825 c -0.873861 -0.268351 -5.12791 -0.393926 -5.98801 -0.393926 c -4.55681 0 -11.9244 3.54533 -11.9244 8.18815 v 269.416 c 0 38.0164 -28.2147 64.8274 -58.2219 64.8274 c -30.002 0 -62.1921 -26.811 -62.1921 -64.8274 V 503.857 c 0 -17.1813 -11.085 -27.8139 -25.9698 -27.8139 c -9.05513 0 -16.4073 3.92549 -22.4039 12.6727 l -28.0805 42.3083 c -12.7243 19.944 -30.7589 28.2181 -49.0652 28.2181 c -41.3828 0 -81.6957 -42.2429 -52.9408 -87.3276 L 621.055 63.957 c 1.48625 -2.69383 4.52584 -0.311356 7.73573 -0.311356 h 318.204 c 4.53272 0 8.30856 -0.698401 8.57003 3.60726 l 7.98 121.178 c 0.091171 1.43809 0.588308 1.79417 1.414 2.98283 c 78.9864 113.678 101.6 185.845 88.4784 260.113 Z" fill="#f8b360" p-id="26853"></path></svg>